<?xml version="1.0" encoding="utf-8"?>
<!-- Generator: Adobe Illustrator 23.0.2, SVG Export Plug-In . SVG Version: 6.00 Build 0)  -->
<svg version="1.1" id="레이어_1" xmlns="http://www.w3.org/2000/svg" xmlns:xlink="http://www.w3.org/1999/xlink" x="0px"
	 y="0px" viewBox="0 0 254.42 129.23" style="enable-background:new 0 0 254.42 129.23;" xml:space="preserve">
<style type="text/css">
	.st0{opacity:0.9;}
	.st1{fill:#323333;}
</style>
<g class="st0">
	<path class="st1" d="M111.91,70.54h-2.1c4.07-9.72,6.17-21.15,6.17-37.83v-9.72c0-13.66-5.26-18.91-19.7-18.91H15.89
		c-6.83,0-10.51,4.73-10.51,10.51S9.06,25.1,15.89,25.1h70.93c2.1,0,3.02,1.18,3.02,3.02v9.2h-75.4c-6.83,0-10.64,4.6-10.64,10.38
		s3.81,10.38,10.64,10.38h73.82c-0.79,4.6-1.84,8.67-3.28,12.48H11.03C3.02,70.56,0,76.08,0,81.33c0,5.39,3.15,10.64,11.03,10.64
		h16.81v5.25c0,7.22-3.55,10.9-8.54,11.43c-5.26,0.53-8.28,3.55-8.54,8.41c-0.26,5.12,3.15,8.54,7.62,9.85
		c2.23,0.66,4.86,0.79,6.83,0.79c14.32-0.13,28.24-10.11,28.24-29.95v-5.8h21.02c0,11.12,0,22.78,0,22.78l0,0
		c0.03,8.37,6.5,13.18,13.32,13.18c6.95,0,13.32-4.67,13.35-13.18l0,0V91.95h10.77c7.88,0,11.03-5.26,11.03-10.64
		C122.94,76.06,119.92,70.54,111.91,70.54z"/>
	<g>
		<path class="st1" d="M171.8,71.85c22.33,0,37.57-9.33,37.57-30.74v-7.22c0-21.41-15.24-30.74-37.57-30.74
			c-22.33,0-37.57,9.33-37.57,30.74v7.22C134.24,62.53,149.47,71.85,171.8,71.85z M159.98,32.84c0-6.96,4.86-10.77,11.82-10.77
			c6.96,0,11.82,3.81,11.82,10.77v9.33c0,7.09-4.86,10.77-11.82,10.77c-6.96,0-11.82-3.68-11.82-10.77V32.84z"/>
		<path class="st1" d="M237.48,82.51c6.96,0,13.27-4.69,13.27-13.23l0,0V14.32c0-8.41-6.44-13-13.27-13c-6.96,0-13.27,4.47-13.27,13
			c0,22.24,0,32.72,0,54.96l0,0C224.22,77.69,230.65,82.51,237.48,82.51z"/>
	</g>
	<path class="st1" d="M244.71,103.77c-1.58,0-3.81-0.13-5.39-0.39c-12.22-1.58-24.43-7.36-28.9-18.13c-1.38-3.34-2.96-5.79-4.8-7.51
		c-0.08-0.07-0.16-0.15-0.24-0.22c-2.51-2.22-4.94-2.94-9.21-2.94s-6.7,0.72-9.21,2.94c-0.08,0.07-0.16,0.15-0.24,0.22
		c-1.84,1.72-3.42,4.17-4.8,7.51c-4.47,10.77-16.68,16.55-28.9,18.13c-1.58,0.26-3.81,0.39-5.39,0.39
		c-5.12,0.13-9.46,4.2-9.72,10.12c-0.26,6.17,4.73,11.16,11.03,11.82c14.92,1.47,34.57-5.1,47.22-16.04
		c12.66,10.93,32.3,17.5,47.22,16.04c6.3-0.66,11.3-5.65,11.03-11.82C254.17,107.98,249.83,103.9,244.71,103.77z"/>
</g>
</svg>
