<?xml version="1.0" encoding="utf-8"?>
<!-- Generator: Adobe Illustrator 23.0.2, SVG Export Plug-In . SVG Version: 6.00 Build 0)  -->
<svg version="1.1" id="레이어_1" xmlns="http://www.w3.org/2000/svg" xmlns:xlink="http://www.w3.org/1999/xlink" x="0px"
	 y="0px" viewBox="0 0 683 271" style="enable-background:new 0 0 683 271;" xml:space="preserve">
<style type="text/css">
	.st0{opacity:0.9;}
	.st1{fill:#323333;}
	.st2{fill:#FFFFFF;}
	.st3{fill:#FFC600;}
</style>
<g class="st0">
	<path class="st1" d="M447.5,148.5h-3.1c6-14.3,9.1-31.1,9.1-55.6V78.6c0-20.1-7.7-27.8-29-27.8H306.4c-10,0-15.4,7-15.4,15.4
		s5.4,15.4,15.4,15.4h104.3c3.1,0,4.4,1.7,4.4,4.4v13.5H304.3c-10,0-15.6,6.8-15.6,15.3s5.6,15.3,15.6,15.3h108.5
		c-1.2,6.8-2.7,12.7-4.8,18.3H299.3c-11.8,0-16.2,8.1-16.2,15.8c0,7.9,4.6,15.6,16.2,15.6H324v7.7c0,10.6-5.2,16-12.6,16.8
		c-7.7,0.8-12.2,5.2-12.6,12.4c-0.4,7.5,4.6,12.6,11.2,14.5c3.3,1,7.1,1.2,10,1.2c21-0.2,41.5-14.9,41.5-44V180h30.9
		c0,16.3,0,33.5,0,33.5l0,0c0,12.3,9.6,19.4,19.6,19.4c10.2,0,19.6-6.9,19.6-19.4l0,0V180h15.8c11.6,0,16.2-7.7,16.2-15.6
		C463.8,156.6,459.3,148.5,447.5,148.5z"/>
	<g>
		<path class="st1" d="M535.6,150.5c32.8,0,55.2-13.7,55.2-45.2V94.7c0-31.5-22.4-45.2-55.2-45.2c-32.8,0-55.2,13.7-55.2,45.2v10.6
			C480.4,136.8,502.7,150.5,535.6,150.5z M518.2,93.1c0-10.2,7.1-15.8,17.4-15.8s17.4,5.6,17.4,15.8v13.7c0,10.4-7.1,15.8-17.4,15.8
			c-10.2,0-17.4-5.4-17.4-15.8V93.1z"/>
		<path class="st1" d="M632.1,166.1c10.2,0,19.5-6.9,19.5-19.4l0,0V65.9c0-12.4-9.5-19.1-19.5-19.1c-10.2,0-19.5,6.6-19.5,19.1
			c0,32.7,0,48.1,0,80.8l0,0C612.6,159,622.1,166.1,632.1,166.1z"/>
	</g>
	<path class="st1" d="M642.7,197.4c-2.3,0-5.6-0.2-7.9-0.6c-18-2.3-35.9-10.8-42.5-26.6c-2-4.9-4.4-8.5-7.1-11
		c-0.1-0.1-0.2-0.2-0.4-0.3c-3.7-3.3-7.3-4.3-13.5-4.3c-6.3,0-9.8,1.1-13.5,4.3c-0.1,0.1-0.2,0.2-0.4,0.3c-2.7,2.5-5,6.1-7.1,11
		c-6.6,15.8-24.5,24.3-42.5,26.6c-2.3,0.4-5.6,0.6-7.9,0.6c-7.5,0.2-13.9,6.2-14.3,14.9c-0.4,9.1,7,16.4,16.2,17.4
		c21.9,2.2,50.8-7.5,69.4-23.6c18.6,16.1,47.5,25.7,69.4,23.6c9.3-1,16.6-8.3,16.2-17.4C656.6,203.6,650.3,197.6,642.7,197.4z"/>
</g>
<rect x="46" y="63.9" class="st2" width="175.9" height="171.2"/>
<g>
	<path class="st3" d="M208.2,40.6h-15.6v12.3c0,5.1-4.2,9.3-9.3,9.3c-5.1,0-9.3-4.2-9.3-9.3V40.6H158v12.3c0,5.1-4.2,9.3-9.3,9.3
		c-5.1,0-9.3-4.2-9.3-9.3V40.6h-16.1v12.3c0,5.1-4.2,9.3-9.3,9.3c-5.1,0-9.3-4.2-9.3-9.3V40.6H88.8v12.3c0,5.1-4.2,9.3-9.3,9.3
		c-5.1,0-9.3-4.2-9.3-9.3V40.6H60c-14.6,0-26.4,11.8-26.4,26.4v148.2c0,14.6,11.8,26.4,26.4,26.4h148.2c14.6,0,26.4-11.8,26.4-26.4
		V67C234.6,52.4,222.7,40.6,208.2,40.6z"/>
	<g>
		<path class="st3" d="M79.5,58.3c3,0,5.4-2.4,5.4-5.4v-1.6v-8.9v-0.3v-1.5V29.8c0-3-2.4-5.4-5.4-5.4c-3,0-5.4,2.4-5.4,5.4v10.8v1.5
			v0.3v8.9v1.6C74.1,55.9,76.5,58.3,79.5,58.3z"/>
	</g>
	<g>
		<path class="st3" d="M114.1,58.3c3,0,5.4-2.4,5.4-5.4v-1.6v-8.9v-0.3v-1.5V29.8c0-3-2.4-5.4-5.4-5.4c-3,0-5.4,2.4-5.4,5.4v10.8
			v1.5v0.3v8.9v1.6C108.7,55.9,111.1,58.3,114.1,58.3z"/>
	</g>
	<g>
		<path class="st3" d="M148.7,58.3c3,0,5.4-2.4,5.4-5.4v-1.6v-8.9v-0.3v-1.5V29.8c0-3-2.4-5.4-5.4-5.4c-3,0-5.4,2.4-5.4,5.4v10.8
			v1.5v0.3v8.9v1.6C143.3,55.9,145.7,58.3,148.7,58.3z"/>
	</g>
	<g>
		<path class="st3" d="M183.3,58.3c3,0,5.4-2.4,5.4-5.4v-1.6v-8.9v-0.3v-1.5V29.8c0-3-2.4-5.4-5.4-5.4c-3,0-5.4,2.4-5.4,5.4v10.8
			v1.5v0.3v8.9v1.6C177.9,55.9,180.3,58.3,183.3,58.3z"/>
	</g>
</g>
<path class="st2" d="M122.8,190.2c-0.1,0-0.1-0.1-0.2-0.1c-1.9-1-5.9-3.3-10-6.1c-6.1-4.2-10.1-9.8-10.1-14.7v-7.6h-4.8h-4.8v7.6
	c0,4.9-4,10.4-10.1,14.7c-4.1,2.8-8.1,5.1-10,6.1c-0.1,0-0.1,0.1-0.2,0.1c-4.6,2.5-7.6,7.3-7.6,12.9c0,8.1,6.6,14.7,14.7,14.7
	c0.6,0,1.2,0,1.7-0.1c-1.9-3-3-6.5-3-10.4c0-3.8,1.1-7.5,3.2-10.6c0.7-1.1,2.2-1.4,3.2-0.7c1.1,0.7,1.4,2.1,0.7,3.2
	c-1.6,2.4-2.4,5.2-2.4,8.1c0,3.4,1.2,6.5,3.1,9c1,1.3,2.2,2.4,3.6,3.3c2.3,1.5,5.1,2.4,8.1,2.4c3,0,5.8-0.9,8.1-2.4
	c1.4-0.9,2.6-2,3.6-3.3c1.9-2.5,3.1-5.6,3.1-9c0-3.2-1-6.2-2.9-8.8c-0.8-1-0.6-2.5,0.5-3.3c1-0.8,2.5-0.6,3.3,0.5
	c2.5,3.4,3.8,7.4,3.8,11.6c0,3.8-1.1,7.4-3,10.4c0.6,0.1,1.1,0.1,1.7,0.1c8.1,0,14.7-6.6,14.7-14.7
	C130.4,197.6,127.3,192.7,122.8,190.2z"/>
<g>
	<g>
		<path class="st2" d="M101.2,70.2c0,0-13.5,6.2-8.8,19C105.2,84.5,101.2,70.2,101.2,70.2z"/>
		<path class="st2" d="M113,88.6c-6.5-2.7-13.3,0.3-18,6.7c-6.5-4.5-13.9-5.1-19.2-0.5c-7.7,6.7-7.9,21.7-0.5,33.3
			c7.3,11.5,19.1,15.5,26.8,9.2c9.3,3.4,19.2-4.2,22.3-17.5C127.5,106.5,122.4,92.5,113,88.6z"/>
	</g>
	<path class="st2" d="M201.9,118.4c2.6-7-0.3-14.7-6.4-18.4c0-0.1,0.1-0.2,0.1-0.3c2.9-8-1.2-16.8-9.2-19.7
		c-8-2.9-16.8,1.2-19.7,9.2c0,0.1,0,0.2-0.1,0.3c-7.1-1.1-14.2,2.9-16.8,9.9c-2.7,7.4,0.7,15.5,7.5,18.9c2,3.8,5.2,12.4,1.5,22.5
		l4.7,1.7l4.7,1.7c3.7-10.1,11.7-14.6,15.7-16.2C191.5,129.8,199.2,125.8,201.9,118.4z M160.9,119.6c2.9,0.7,5.8,0.5,8.4-0.4
		l-3.6,12C165.8,131.1,164.3,125.5,160.9,119.6z M169.4,132.5l4.9-11.5c1.4,2.4,3.6,4.4,6.2,5.8C174.1,129,169.4,132.5,169.4,132.5z
		"/>
	<g>
		<path class="st2" d="M184.4,153c0,0-16.4,8.2-6.9,23.9C193.9,168.7,184.4,153,184.4,153z"/>
		<path class="st2" d="M161.7,165.9c0,0-5.1,17.6,12.9,21.3C179.6,169.6,161.7,165.9,161.7,165.9z"/>
		<path class="st2" d="M196.8,176.1c0,0-5.1,17.6-22.2,11.1C179.7,169.6,196.8,176.1,196.8,176.1z"/>
		<path class="st2" d="M156.3,184.3c0,0-5.1,17.6,12.9,21.3C174.3,188,156.3,184.3,156.3,184.3z"/>
		<path class="st2" d="M191.4,194.5c0,0-5.1,17.6-22.2,11.1C174.3,188,191.4,194.5,191.4,194.5z"/>
		<path class="st2" d="M151,202.8c0,0-5.1,17.6,12.9,21.3C168.9,206.4,151,202.8,151,202.8z"/>
		<path class="st2" d="M186.1,212.9c0,0-5.1,17.6-22.2,11.1C169,206.5,186.1,212.9,186.1,212.9z"/>
	</g>
</g>
</svg>
