<?xml version="1.0" encoding="utf-8"?>
<!-- Generator: Adobe Illustrator 23.0.2, SVG Export Plug-In . SVG Version: 6.00 Build 0)  -->
<svg version="1.1" id="Bold" xmlns="http://www.w3.org/2000/svg" xmlns:xlink="http://www.w3.org/1999/xlink" x="0px" y="0px"
	 viewBox="0 0 512 512" style="enable-background:new 0 0 512 512;" xml:space="preserve">
<style type="text/css">
	.st0{display:none;}
	.st1{display:inline;fill:none;stroke:#364267;stroke-miterlimit:10;}
	.st2{display:inline;fill:#111111;}
	.st3{fill:#111111;}
</style>
<g id="레이어_2" class="st0">
	<rect x="0" class="st1" width="512" height="512"/>
</g>
<g class="st0">
	<path class="st2" d="M315.1,168.4L255,228.6l-22.3-22.3c-8-8-20.9-8-28.9,0c-8,8-8,20.9,0,28.9l36.8,36.8c4,4,9.2,6,14.5,6
		c5.2,0,10.5-2,14.5-6l74.6-74.6c8-8,8-20.9,0-28.9C336.1,160.4,323.1,160.4,315.1,168.4z"/>
	<path class="st2" d="M448.9,258.8c0-27.4-5.8-53.4-16.1-77c27.3-31.5,24.1-79.1-7.2-106.8c-30.1-26.5-75.2-25-103.4,2.6
		c-20.7-7.6-43-11.7-66.2-11.7c-23.3,0-45.6,4.1-66.2,11.7C161.5,50,116.4,48.5,86.4,75c-31.3,27.6-34.4,75.3-7.2,106.8
		c-10.3,23.6-16.1,49.7-16.1,77c0,55.2,23.4,105.1,60.7,140.3c-17.1,25-24.1,48.8-15.7,55.2c8.5,6.4,29.5-6.8,48.9-30
		c28.9,17.4,62.8,27.4,98.9,27.4s70-10,98.9-27.4c19.5,23.2,40.5,36.4,48.9,30c8.4-6.4,1.4-30.2-15.7-55.2
		C425.5,363.9,448.9,314,448.9,258.8z M270.3,414.2v-16.4c0-7.9-6.4-14.3-14.3-14.3c-7.9,0-14.3,6.4-14.3,14.3v16.4
		c-74.7-6.8-134.3-66.4-141.1-141.1H117c7.9,0,14.3-6.4,14.3-14.3c0-7.9-6.4-14.3-14.3-14.3h-16.4c6.8-74.7,66.4-134.3,141.1-141.1
		v16.4c0,7.9,6.4,14.3,14.3,14.3c7.9,0,14.3-6.4,14.3-14.3v-16.4c74.7,6.8,134.3,66.4,141.1,141.1H395c-7.9,0-14.3,6.4-14.3,14.3
		c0,7.9,6.4,14.3,14.3,14.3h16.4C404.6,347.8,345,407.4,270.3,414.2z"/>
</g>
<g class="st0">
	<path class="st2" d="M419.9,175.4c-0.4,0-0.7,0-1,0.1C392.2,111.7,329.3,66.8,256,66.8c-73.3,0-136.3,44.9-162.9,108.6
		c-0.3,0-0.7-0.1-1-0.1c-18.4,0-33.4,15-33.4,33.4v68.9c0,18.4,15,33.4,33.4,33.4c18.4,0,33.4-15,33.4-33.4v-68.9
		c0-9-3.6-17.2-9.4-23.2c22.7-54.9,76.9-93.7,139.9-93.7c63.1,0,117.2,38.8,140,93.7c-5.8,6-9.4,14.2-9.4,23.2v68.9
		c0,9,3.6,17.2,9.4,23.2c-18.7,45.3-58.8,79.6-107.7,90.2c-6.6-11-18.6-18.4-32.3-18.4c-20.7,0-37.6,16.9-37.6,37.6
		c0,20.7,16.9,37.6,37.6,37.6c18.9,0,34.5-14,37.1-32.2c56.9-12.2,103.7-52,125.7-104.7c0.4,0,0.7,0.1,1,0.1
		c18.4,0,33.4-15,33.4-33.4v-68.9C453.3,190.4,438.3,175.4,419.9,175.4z"/>
	<path class="st2" d="M232.3,228.6c0-11.5-9.3-20.8-20.8-20.8c-11.5,0-20.8,9.3-20.8,20.8c0,11.5,9.3,20.9,20.8,20.9
		C223,249.5,232.3,240.2,232.3,228.6z"/>
	<path class="st2" d="M321.4,228.6c0-11.5-9.3-20.8-20.8-20.8c-11.5,0-20.9,9.3-20.9,20.8c0,11.5,9.3,20.9,20.9,20.9
		C312.1,249.5,321.4,240.2,321.4,228.6z"/>
	<path class="st2" d="M310.9,281.7H201.1c8.4,22.2,29.8,37.9,54.9,37.9C281.1,319.6,302.5,303.9,310.9,281.7z"/>
</g>
<path class="st3" d="M383.2,295.8c22.5-22.6,35.3-53.3,35.3-85.3c0-66.7-54.2-120.9-120.9-120.9c-54.7,0-101.6,35.8-116.3,87.8
	c-50.6,14.4-87.8,61.1-87.8,116.3c0,32,12.8,62.7,35.3,85.3l-10,29.9c-1.4,4.1,0,8.6,3.3,11.3c1.9,1.5,4.2,2.3,6.5,2.3
	c1.8,0,3.6-0.5,5.3-1.4l29.8-17.7c15.8,7.3,33.3,11.2,50.8,11.2c55.2,0,101.8-37.2,116.3-87.8c6.1-1.7,12-3.9,17.7-6.5l29.8,17.7
	c1.6,1,3.5,1.4,5.3,1.4c2.3,0,4.6-0.8,6.5-2.3c3.4-2.7,4.7-7.2,3.3-11.3L383.2,295.8z M160.7,313.9c-9.2,0-16.6-7.4-16.6-16.6
	c0-9.2,7.4-16.6,16.6-16.6c9.2,0,16.6,7.4,16.6,16.6C177.3,306.4,169.9,313.9,160.7,313.9z M216.5,313.9c-9.2,0-16.6-7.4-16.6-16.6
	c0-9.2,7.4-16.6,16.6-16.6c9.2,0,16.6,7.4,16.6,16.6C233.1,306.4,225.6,313.9,216.5,313.9z M272.2,313.9c-9.2,0-16.6-7.4-16.6-16.6
	c0-9.2,7.4-16.6,16.6-16.6c9.2,0,16.6,7.4,16.6,16.6C288.8,306.4,281.4,313.9,272.2,313.9z M364.5,285.1c-3.1,2.7-4.2,7-2.9,11
	l3.3,9.9l-10.8-6.4c-3.1-1.8-6.9-1.9-10.1-0.3c-3,1.5-6,2.9-9.1,4.1c0.3-3.2,0.4-6.5,0.4-9.8c0-66.7-54.2-120.9-120.9-120.9
	c-3.3,0-6.6,0.2-9.8,0.4c15-37.7,51.3-63,93-63c55.3,0,100.3,45,100.3,100.3C397.8,238.9,385.7,266.1,364.5,285.1z"/>
</svg>
