<?xml version="1.0" encoding="utf-8"?>
<!-- Generator: Adobe Illustrator 23.0.2, SVG Export Plug-In . SVG Version: 6.00 Build 0)  -->
<svg version="1.1" id="Bold" xmlns="http://www.w3.org/2000/svg" xmlns:xlink="http://www.w3.org/1999/xlink" x="0px" y="0px"
	 viewBox="0 0 512 512" style="enable-background:new 0 0 512 512;" xml:space="preserve">
<style type="text/css">
	.st0{display:none;}
	.st1{display:inline;fill:#364267;}
	.st2{fill:#111111;}
</style>
<g id="레이어_2" class="st0">
	<rect x="0" y="0" class="st1" width="512" height="512"/>
</g>
<g>
	<path class="st2" d="M315.1,168.4L255,228.6l-22.3-22.3c-8-8-20.9-8-28.9,0c-8,8-8,20.9,0,28.9l36.8,36.8c4,4,9.2,6,14.5,6
		c5.2,0,10.5-2,14.5-6l74.6-74.6c8-8,8-20.9,0-28.9C336.1,160.4,323.1,160.4,315.1,168.4z"/>
	<path class="st2" d="M448.9,258.8c0-27.4-5.8-53.4-16.1-77c27.3-31.5,24.1-79.1-7.2-106.8c-30.1-26.5-75.2-25-103.4,2.6
		c-20.7-7.6-43-11.7-66.2-11.7c-23.3,0-45.6,4.1-66.2,11.7C161.5,50,116.4,48.5,86.4,75c-31.3,27.6-34.4,75.3-7.2,106.8
		c-10.3,23.6-16.1,49.7-16.1,77c0,55.2,23.4,105.1,60.7,140.3c-17.1,25-24.1,48.8-15.7,55.2c8.5,6.4,29.5-6.8,48.9-30
		c28.9,17.4,62.8,27.4,98.9,27.4s70-10,98.9-27.4c19.5,23.2,40.5,36.4,48.9,30c8.4-6.4,1.4-30.2-15.7-55.2
		C425.5,363.9,448.9,314,448.9,258.8z M270.3,414.2v-16.4c0-7.9-6.4-14.3-14.3-14.3c-7.9,0-14.3,6.4-14.3,14.3v16.4
		c-74.7-6.8-134.3-66.4-141.1-141.1H117c7.9,0,14.3-6.4,14.3-14.3c0-7.9-6.4-14.3-14.3-14.3h-16.4c6.8-74.7,66.4-134.3,141.1-141.1
		v16.4c0,7.9,6.4,14.3,14.3,14.3c7.9,0,14.3-6.4,14.3-14.3v-16.4c74.7,6.8,134.3,66.4,141.1,141.1H395c-7.9,0-14.3,6.4-14.3,14.3
		c0,7.9,6.4,14.3,14.3,14.3h16.4C404.6,347.8,345,407.4,270.3,414.2z"/>
</g>
</svg>
