<?xml version="1.0" encoding="utf-8"?>
<!-- Generator: Adobe Illustrator 23.0.2, SVG Export Plug-In . SVG Version: 6.00 Build 0)  -->
<svg version="1.1" id="Bold" xmlns="http://www.w3.org/2000/svg" xmlns:xlink="http://www.w3.org/1999/xlink" x="0px" y="0px"
	 viewBox="0 0 512 512" style="enable-background:new 0 0 512 512;" xml:space="preserve">
<path d="M256,28C129.5,28,27,130.5,27,257s102.5,229,229,229s229-102.5,229-229S382.5,28,256,28z M244.3,395.2
	c-35.7,0-60.3-13.5-78-30.9l24.3-33.6c12.6,12,28.2,21.3,45.9,21.3c21.6,0,35.1-11.7,35.1-34.8c0-22.5-13.5-34.5-32.7-34.5
	c-12.3,0-18.3,2.4-31.5,10.8L184,278.2l5.7-110.4h125.4v44.4h-79.5l-3.3,37.8c8.1-3.3,14.7-4.5,23.1-4.5c37.8,0,69.6,22.2,69.6,70.5
	C325,366.1,287.2,395.2,244.3,395.2z M399,178h-17v17h-18.9v-17H346v-18.9h17.1V142H382v17.1h17V178z"/>
</svg>
