<?xml version="1.0" encoding="utf-8"?>
<!-- Generator: Adobe Illustrator 23.0.2, SVG Export Plug-In . SVG Version: 6.00 Build 0)  -->
<svg version="1.1" xmlns="http://www.w3.org/2000/svg" xmlns:xlink="http://www.w3.org/1999/xlink" x="0px" y="0px"
	 viewBox="0 0 50 50" style="enable-background:new 0 0 50 50;" xml:space="preserve">
<style type="text/css">
	.st0{fill:#FFFFFF;}
</style>
<g id="레이어_1_사본">
	<path class="st0" d="M40.49,39.83L40.49,39.83c-1.83,1.83-4.8,1.83-6.64,0L10.84,16.81C9,14.98,9,12,10.84,10.17l0,0
		c1.83-1.83,4.8-1.83,6.64,0l23.02,23.02C42.32,35.02,42.32,38,40.49,39.83z"/>
</g>
<g id="레이어_1">
	<path class="st0" d="M10.84,39.83L10.84,39.83C9,38,9,35.02,10.84,33.19l23.02-23.02c1.83-1.83,4.8-1.83,6.64,0l0,0
		c1.83,1.83,1.83,4.8,0,6.64L17.47,39.83C15.64,41.66,12.67,41.66,10.84,39.83z"/>
</g>
</svg>
