<?xml version="1.0" encoding="utf-8"?>
<!-- Generator: Adobe Illustrator 22.0.1, SVG Export Plug-In . SVG Version: 6.00 Build 0)  -->
<svg version="1.1" id="레이어_1" xmlns="http://www.w3.org/2000/svg" xmlns:xlink="http://www.w3.org/1999/xlink" x="0px"
	 y="0px" viewBox="0 0 50 50" style="enable-background:new 0 0 50 50;" xml:space="preserve">
<style type="text/css">
	.st0{fill:#FFFFFF;stroke:#000000;stroke-miterlimit:10;}
</style>
<g>
	<path d="M48,13.4L48,13.4c-1.7-1.7-4.4-1.7-6.1,0c0,0-15.8,16.9-16.9,16.9S8.1,13.4,8.1,13.4c-1.7-1.7-4.4-1.7-6.1,0
		s-1.7,4.4,0,6.1l19.9,19.9c0,0,0,0,0,0c0.8,0.8,2,1.3,3.1,1.3c1.1,0,2.2-0.4,3.1-1.3h0c0,0,0,0,0,0L48,19.5
		C49.7,17.9,49.7,15.1,48,13.4z"/>
</g>
<path class="st0" d="M30.5,39.5"/>
</svg>
