<?xml version="1.0" encoding="utf-8"?>
<!-- Generator: Adobe Illustrator 23.0.2, SVG Export Plug-In . SVG Version: 6.00 Build 0)  -->
<svg version="1.1" id="레이어_1" xmlns="http://www.w3.org/2000/svg" xmlns:xlink="http://www.w3.org/1999/xlink" x="0px"
	 y="0px" viewBox="0 0 270 250" style="enable-background:new 0 0 270 250;" xml:space="preserve">
<style type="text/css">
	.st0{fill:url(#SVGID_1_);stroke:#040000;stroke-width:6.5735;stroke-linecap:round;stroke-linejoin:round;stroke-miterlimit:10;}
	.st1{fill:none;stroke:#B3741E;stroke-width:6.5735;stroke-miterlimit:10;}
</style>
<g>
	<g>
		<linearGradient id="SVGID_1_" gradientUnits="userSpaceOnUse" x1="26.8314" y1="124.6758" x2="242.6818" y2="124.6758">
			<stop  offset="0" style="stop-color:#FDDEA5"/>
			<stop  offset="1" style="stop-color:#D3A645"/>
		</linearGradient>
		<path class="st0" d="M240.9,202.9H28.6c-1,0-1.7-0.8-1.7-1.7V48.2c0-1,0.8-1.7,1.7-1.7h212.4c1,0,1.7,0.8,1.7,1.7v152.9
			C242.7,202.1,241.9,202.9,240.9,202.9z"/>
		<path class="st1" d="M173.5,169.1H96.1c-0.4,0-0.8-0.4-0.8-0.8V81c0-0.4,0.4-0.8,0.8-0.8h77.4c0.4,0,0.8,0.4,0.8,0.8v87.3
			C174.2,168.8,173.9,169.1,173.5,169.1z"/>
		<line class="st1" x1="134.8" y1="169.1" x2="134.8" y2="202.9"/>
		<line class="st1" x1="134.8" y1="46.5" x2="134.8" y2="80.2"/>
		<line class="st1" x1="174.2" y1="124.7" x2="242.7" y2="124.7"/>
		<line class="st1" x1="174.2" y1="97.2" x2="242.7" y2="97.2"/>
		<line class="st1" x1="174.2" y1="152.1" x2="242.7" y2="152.1"/>
		<line class="st1" x1="26.8" y1="124.7" x2="95.3" y2="124.7"/>
		<line class="st1" x1="26.8" y1="97.2" x2="95.3" y2="97.2"/>
		<line class="st1" x1="26.8" y1="152.1" x2="95.3" y2="152.1"/>
		<path class="st1" d="M240.9,202.9H28.6c-1,0-1.7-0.8-1.7-1.7V48.2c0-1,0.8-1.7,1.7-1.7h212.4c1,0,1.7,0.8,1.7,1.7v152.9
			C242.7,202.1,241.9,202.9,240.9,202.9z"/>
	</g>
</g>
</svg>
