<?xml version="1.0" encoding="utf-8"?>
<!-- Generator: Adobe Illustrator 22.0.1, SVG Export Plug-In . SVG Version: 6.00 Build 0)  -->
<svg version="1.1" id="레이어_1" xmlns="http://www.w3.org/2000/svg" xmlns:xlink="http://www.w3.org/1999/xlink" x="0px"
	 y="0px" viewBox="0 0 400 400" style="enable-background:new 0 0 400 400;" xml:space="preserve">
<style type="text/css">
	.st0{fill:#F5C732;}
	.st1{fill:#F8CBC5;}
	.st2{clip-path:url(#SVGID_2_);fill:#F09E97;}
	.st3{fill:#1D181C;}
	.st4{fill:none;}
	.st5{fill:#FBDBD7;}
</style>
<g>
	<g id="Shape_26">
		<g>
			<path class="st0" d="M290.1,290.8c-3.3-6-32.9-68.9-44.3-78.4s-35-16.3-35-16.3s-11.9,0-32.2,2.1s-26,2.4-48.4,16.7
				S101,330,101,330h149.8l-4.9-19.6c0,0,15.5,36.9,34.4,30.6C299.2,334.7,296.6,302.5,290.1,290.8z"/>
		</g>
	</g>
</g>
<path class="st1" d="M164.5,167.6c0,0,4.9,40.4,0,45.1s15.5,7.3,26.9,3.4s9.6-9.1,9.6-9.1s-6.8-30-7.3-38.1
	c-0.4-8.1-3.3-5.7-3.3-5.7L164.5,167.6z"/>
<g>
	<g>
		<defs>
			<path id="SVGID_1_" d="M164.5,167.6c0,0,4.9,40.4,0,45.1s15.5,7.3,26.9,3.4s9.6-9.1,9.6-9.1s-6.8-30-7.3-38.1
				c-0.4-8.1-3.3-5.7-3.3-5.7L164.5,167.6z"/>
		</defs>
		<clipPath id="SVGID_2_">
			<use xlink:href="#SVGID_1_"  style="overflow:visible;"/>
		</clipPath>
		<path class="st2" d="M151.9,176.5c4.3,8.4,25.3,19.4,66.6-1.9c53.7-27.7-20.5-32.3-20.5-32.3l-49.5,10L151.9,176.5z"/>
	</g>
</g>
<g>
	<g>
		<g id="Shape_22_8_">
			<g>
				<path class="st3" d="M227.3,152.2c-7.1-16.4,10.5-43.1-6.2-52s-71.3-15.7-85.1,18.5c0,0,4.3,18.5-3.4,29.4
					c-7.8,10.9-10.8,23.2-7.5,27.4c3.2,4.1,14.6-4.8,25.4-4.8s77.7,8.2,77.5,1.4C227.7,165.2,234.4,168.6,227.3,152.2z"/>
			</g>
			<g>
				<path class="st3" d="M227.3,152.2c-7.1-16.4,10.5-43.1-6.2-52s-71.3-15.7-85.1,18.5c0,0,4.3,18.5-3.4,29.4
					c-7.8,10.9-10.8,23.2-7.5,27.4c3.2,4.1,14.6-4.8,25.4-4.8s77.7,8.2,77.5,1.4C227.7,165.2,234.4,168.6,227.3,152.2z"/>
			</g>
			<g>
				<path class="st3" d="M227.3,152.2c-7.1-16.4,10.5-43.1-6.2-52s-71.3-15.7-85.1,18.5c0,0,4.3,18.5-3.4,29.4
					c-7.8,10.9-10.8,23.2-7.5,27.4c3.2,4.1,14.6-4.8,25.4-4.8s77.7,8.2,77.5,1.4C227.7,165.2,234.4,168.6,227.3,152.2z"/>
			</g>
		</g>
	</g>
</g>
<g id="Ellipse_6">
	<g>
		<path class="st1" d="M175.5,78.4c-21,0-38.1,23-38.1,51.3s22.3,52,38.1,51.3c15.8-0.7,38.1-23,38.1-51.3S196.5,78.4,175.5,78.4z"
			/>
	</g>
</g>
<g id="Shape_21">
	<g>
		<path class="st3" d="M149.3,76.9c-11.2,10.3-18.6,13.5-19.7,31.6s1.3,37.9,11.4,37.9s6.8-18.4,12.8-35c2.5-6.8-0.6-14.8,1.9-20.9
			c1.7-4.2,8.5-6.5,11.4-8.9c2.8-2.3,1.8-4.7,2.8-4.7C169.9,76.9,160.5,66.6,149.3,76.9z"/>
	</g>
</g>
<g id="Shape_20">
	<g>
		<path class="st3" d="M232,121.4c-2.3-5.5,4.3-26-7.5-39c-11.9-13-32.9-28.7-61-9.6c0,0,19.5,49.1,29.6,51.8s15.7-2.8,18.3,2
			c2.5,4.8,1.1-0.4,9.1,5C228.4,137.2,234.3,126.9,232,121.4z"/>
	</g>
	<g>
		<path class="st4" d="M232,121.4c-2.3-5.5,4.3-26-7.5-39c-11.9-13-32.9-28.7-61-9.6c0,0,6.4,30.8,16.5,33.5s20.8,8.2,23.3,13
			c2.5,4.8,9.1,6.8,17.1,12.3C228.4,137.2,234.3,126.9,232,121.4z"/>
	</g>
</g>
<g id="Shape_23">
	<g>
		<path class="st5" d="M268.4,280.7c0,0-61.3-86.1-65.2-90.9s1.4-12.3,1.4-12.3c13.9-16.4,11-33.5,11-33.5c0.7-3.4-1.1-21.2-5-19.1
			s-4.8,10.3-1.8,21.9c3,11.6-26.3,23.9-26.1,35.6c0.1,7.4,45.9,86.8,60.8,110.6c10.9,17.5,16.5,8.5,19.5,7.6
			C271,298.1,268.4,280.7,268.4,280.7z"/>
	</g>
</g>
<path class="st3" d="M139.5,139.9"/>
<path class="st4" d="M195.3,101.8"/>
</svg>
