<?xml version="1.0" encoding="utf-8"?>
<!-- Generator: Adobe Illustrator 23.0.2, SVG Export Plug-In . SVG Version: 6.00 Build 0)  -->
<svg version="1.1" id="레이어_1" xmlns="http://www.w3.org/2000/svg" xmlns:xlink="http://www.w3.org/1999/xlink" x="0px"
	 y="0px" viewBox="0 0 400 400" style="enable-background:new 0 0 400 400;" xml:space="preserve">
<style type="text/css">
	.st0{fill:#DFA59B;}
	.st1{fill:#D16A5E;}
	.st2{fill:#F5C732;}
	.st3{fill:#F7D35C;}
	.st4{fill:#E5B31B;}
</style>
<g id="Shape_17">
	<g>
		<path class="st0" d="M272.11,119.32c-43.75,10.31-56.41,2.04-59.44-8.52c-3.03-10.56-0.75-15.06-0.75-15.06
			s-15.05-8.28-24.08,3.77c0,0,2.28,21.1,9.78,30.88c7.5,9.78,25.35,23.6,23.07,45.43c-2.28,21.83-8,45.2-31.35,48.96
			c-23.35,3.75-50.39-5.5-66.21-4.76c-15.82,0.74-39.11,8.3-39.13,44.43c0,5.14,0.67,13.12,0.67,13.12s-1.98,8.92,1.84,13.74
			c3.64,4.59,13.04,5.09,15.55,4.77c3.16-0.4,14.51-5.6,14.22-13.51c-0.36-9.9-4.79-16.65-4.44-20.38
			c0.84-9.01,1.53-12.79,9.03-9.04c7.5,3.75,44.41,61.01,98.57,51.96c54.15-9.05,95.83-35.89,96.56-102.93
			C316.73,135.13,292.03,114.63,272.11,119.32z"/>
	</g>
</g>
<g id="Shape_18">
	<g>
		<g>
			<path class="st1" d="M274.26,130.62c-65.36,1.34-39,74.34-54.07,87.13c-15.07,12.79-24.81,16.58-42.89,16.57
				c-18.08-0.01-31.58,7.54-30.1,21.09c1.48,13.54,19.58,43.69,56.43,42.93c44.47-0.92,73.01-15.8,92.55-45.94
				S308.38,129.92,274.26,130.62z"/>
			<path class="st1" d="M274.26,130.62c-65.36,1.34-39,74.34-54.07,87.13c-15.07,12.79-24.81,16.58-42.89,16.57
				c-18.08-0.01-31.58,7.54-30.1,21.09c1.48,13.54,19.58,43.69,56.43,42.93c44.47-0.92,73.01-15.8,92.55-45.94
				S308.38,129.92,274.26,130.62z"/>
		</g>
	</g>
</g>
<g id="Shape_18_copy_3_">
	<g>
		<path class="st2" d="M275,220c-7.76-2.68-1-7-16-15c-7.68-4.09-20.27,4-24.39,0.91c-5.91-4.45-7.69,5.47-14.42,11.84
			c-6.7,6.34-24.81,16.58-42.89,16.57c-18.08-0.01-31.58,7.54-30.1,21.09s19.58,43.69,56.43,42.93
			c44.47-0.92,73.01-15.8,92.55-45.94C315.09,223.23,291.88,225.83,275,220z"/>
	</g>
</g>
<g id="Ellipse_2">
	<g>
		<path class="st2" d="M278.23,207.19c-7.27,0-13.17,5.9-13.17,13.18s5.9,13.18,13.17,13.18c7.27,0,13.17-5.9,13.17-13.18
			S285.5,207.19,278.23,207.19z"/>
	</g>
</g>
<g id="Ellipse_2_copy_2">
	<g>
		<ellipse class="st2" cx="295.77" cy="223.6" rx="7.47" ry="7.29"/>
	</g>
</g>
<g id="Ellipse_2_copy_3">
	<g>
		<path class="st3" d="M251.02,179.99c-1.46,0-2.64,1.18-2.64,2.64s1.18,2.64,2.64,2.64c1.46,0,2.64-1.18,2.64-2.64
			S252.48,179.99,251.02,179.99z"/>
	</g>
</g>
<g id="Ellipse_2_copy_6">
	<g>
		<path class="st2" d="M278.23,185.27c-1.67,0-3.02,1.34-3.02,3c0,1.66,1.35,3,3.02,3c1.67,0,3.02-1.34,3.02-3
			C281.25,186.61,279.9,185.27,278.23,185.27z"/>
	</g>
</g>
<g id="Ellipse_2_copy_7">
	<g>
		<ellipse class="st3" cx="268.08" cy="201.92" rx="3.02" ry="3.02"/>
	</g>
</g>
<g id="Ellipse_2_copy_8">
	<g>
		<path class="st2" d="M248.79,207.19c-1.67,0-3.02,1.35-3.02,3.02c0,1.67,1.35,3.02,3.02,3.02c1.67,0,3.02-1.35,3.02-3.02
			C251.81,208.55,250.46,207.19,248.79,207.19z"/>
	</g>
</g>
<g id="Ellipse_2_copy_4">
	<g>
		<ellipse class="st2" cx="255.03" cy="207.19" rx="7.45" ry="7.46"/>
	</g>
</g>
<g id="Ellipse_2_copy_9">
	<g>
		
			<ellipse transform="matrix(1.449994e-03 -1 1 1.449994e-03 -43.7934 462.9119)" class="st3" cx="209.9" cy="253.38" rx="5.28" ry="5.27"/>
	</g>
</g>
<g id="Ellipse_2_copy_12">
	<g>
		<ellipse class="st4" cx="178.05" cy="258.03" rx="6.27" ry="6.9"/>
	</g>
</g>
<g id="Ellipse_2_copy_11">
	<g>
		<ellipse class="st3" cx="222.44" cy="275.98" rx="5.27" ry="5.28"/>
	</g>
</g>
<g id="Ellipse_2_copy_10">
	<g>
		<ellipse class="st3" cx="247.65" cy="268.08" rx="13.17" ry="13.18"/>
	</g>
</g>
<g id="Ellipse_2_copy_10_3_">
	<g>
		
			<ellipse transform="matrix(1 -1.629464e-03 1.629464e-03 1 -0.3701 0.392)" class="st3" cx="240.35" cy="227.33" rx="4.73" ry="4.74"/>
	</g>
</g>
<g id="Ellipse_2_copy_5">
	<g>
		<ellipse class="st2" cx="239.74" cy="207.04" rx="5.25" ry="5.28"/>
	</g>
</g>
<g id="Ellipse_2_copy_13">
	<g>
		<ellipse class="st4" cx="260.82" cy="264.31" rx="6.27" ry="6.9"/>
	</g>
</g>
</svg>
