<?xml version="1.0" encoding="utf-8"?>
<!-- Generator: Adobe Illustrator 23.0.2, SVG Export Plug-In . SVG Version: 6.00 Build 0)  -->
<svg version="1.1" id="레이어_1" xmlns="http://www.w3.org/2000/svg" xmlns:xlink="http://www.w3.org/1999/xlink" x="0px"
	 y="0px" viewBox="0 0 400 400" style="enable-background:new 0 0 400 400;" xml:space="preserve">
<style type="text/css">
	.st0{fill:#F5C732;}
	.st1{fill:#08102B;}
	.st2{fill:#F8CBC5;}
</style>
<g id="Rounded_Rectangle_1">
	<g>
		<path class="st0" d="M326.94,158.19c0,0-63.78-19.08-127.44-19.08c-62.77,0-125.43,19.08-125.43,19.08S54,174.26,54,190.33
			c0,22.76,20.07,37.16,20.07,37.16s60.69,17.07,122.42,17.07c64.63,0,130.45-17.07,130.45-17.07c2.68,0,18.06-15.06,18.06-35.15
			C345,173.59,329.61,158.19,326.94,158.19z"/>
	</g>
</g>
<g>
	<path class="st1" d="M196.76,217.85c17.46,0,33.17,7.52,44.07,19.49c8.5-11.58,13.6-26.42,13.6-42.6
		c0-37.01-26.7-67.01-59.64-67.01c-32.94,0-59.64,30-59.64,67.01c0,17.33,5.86,33.12,15.47,45.02
		C161.54,226.38,178.15,217.85,196.76,217.85z"/>
	<path class="st2" d="M194.61,261.74c18.54,0,35.1-9.5,46.04-24.41c-10.9-11.97-26.6-19.49-44.07-19.49
		c-18.61,0-35.22,8.54-46.15,21.91C161.35,253.26,177.1,261.74,194.61,261.74z"/>
</g>
<g id="Ellipse_4">
	<g>
		<path class="st2" d="M195.29,155.11c0,0-10,47.47-10.03,73.82c-0.06,43.76,19,43.76,19.07,0
			C204.36,202.58,195.29,155.11,195.29,155.11z"/>
	</g>
</g>
</svg>
