<?xml version="1.0" encoding="utf-8"?>
<!-- Generator: Adobe Illustrator 23.0.2, SVG Export Plug-In . SVG Version: 6.00 Build 0)  -->
<svg version="1.1" id="레이어_1" xmlns="http://www.w3.org/2000/svg" xmlns:xlink="http://www.w3.org/1999/xlink" x="0px"
	 y="0px" viewBox="0 0 400 400" style="enable-background:new 0 0 400 400;" xml:space="preserve">
<style type="text/css">
	.st0{fill:#F8CBC5;}
	.st1{fill:#F5C732;}
	.st2{fill:#D7958D;}
	.st3{fill:#F0E1E1;}
	.st4{fill:#08102B;}
	.st5{fill:none;stroke:#08102B;stroke-width:5;stroke-miterlimit:100;}
</style>
<g id="Shape_9">
	<g>
		<path class="st0" d="M311.99,111.98c-4.83-4.93-14.72-17.86-19.45-16.29c0,0-22.77,16.75-25.23,21.54
			c-2.47,4.79-5.26,11.56-5.26,11.56l-19.97,40.98c0,0-2.27,6.77-3.15,8.93c-0.89,2.16-9.99,8.93-9.99,8.93
			s-28.81,10.97-35.22,15.24c-6.41,4.26-11.46,9.66-18.4,12.09c-6.93,2.42-26.18,11.24-31.54,12.61
			c-5.36,1.37-10.41,2.57-14.72,1.58c-4.3-0.99-4.78-2.69-11.56-0.53c-7.2,2.29-18.73,5.59-22.08,6.83
			c-1.94,0.72-2.79,10.45-2.1,12.09c0.69,1.64,2.73-2.16,6.83-2.1c4.11,0.06-0.43-0.32-0.53,1.58c-0.1,1.9-3.05,7.82,2.63,11.03
			c5.68,3.21,20.86,12.02,21.03,14.19c0.16,2.16-1.21,3.88,1.05,3.68c2.27-0.2,19.55-12.93,19.97-15.76
			c0.43-2.83,3.15-2.63,3.15-2.63s80.52-22.13,86.73-25.75c6.21-3.62,17.18-13.98,18.4-16.29c1.21-2.3,9.04-12.15,9.99-13.14
			c0.95-0.99,41-48.87,41-48.87S316.82,116.91,311.99,111.98z"/>
	</g>
</g>
<g id="Shape_13">
	<g>
		<path class="st1" d="M317.77,76.25c0,0-34.33,21.4-43.1,32.58c-8.77,11.18-14.19,15.24-14.19,15.24s23.32,3.71,26.81,9.46
			c3.49,5.75,8.95,18.77,8.94,23.12c-0.01,4.35-2.79,5.81-2.63,12.09c-0.3-11.4-4.95,137.9-4.95,137.9l38.59-0.7l0.53-232.3
			L317.77,76.25z"/>
	</g>
</g>
<g id="Shape_10">
	<g>
		<path class="st2" d="M102.25,242.81c-2.53,0.2-10.61,6.63-12.09,9.46c-1.48,2.83-6.31,5.78-6.31,5.78
			c0.79,1.84-0.1,4.79,1.58,7.36c1.68,2.57,4.37-0.2,6.83-0.53c2.47-0.32,3.84-4.14,5.26-5.25c1.41-1.11,7.78-11.5,8.41-14.19
			C106.56,242.75,104.78,242.61,102.25,242.81z"/>
	</g>
</g>
<g id="Shape_10_copy_3">
	<g>
		<path class="st2" d="M114.42,240.12c-1.19,0.39-3.85,4.12-6.28,7.94c-2.51,3.95-11.57,11.56-12.89,15.23
			c-1.31,3.68,0.95,4.24,3.16,6.09c2.21,1.85,4.26-1.24,6.62-2.13c2.36-0.89,3.42-3.67,4.57-4.99c0.63-0.73,4.61-6.89,6.31-12.09
			c1.39-4.25,2.69-7.5,2.7-8.64C118.65,239.01,116.87,239.32,114.42,240.12z"/>
	</g>
</g>
<g id="Shape_10_copy_4">
	<g>
		<path class="st2" d="M127.75,255.86c-0.97,0.3-3.12,3.16-5.09,6.1c-2.08,3.1-2.9,6.29-3.25,7.42c-0.68,2.19-4.02,5.09-4.02,5.09
			c0.96,1.1,0.77,3.26,2.56,4.68c1.79,1.42,3.45-0.96,5.37-1.64c1.91-0.68,2.34-3.52,3.27-4.54c0.51-0.56,2.01-4.59,3.39-8.58
			c1.13-3.27,1.16-6.57,1.17-7.44C131.18,255.02,129.74,255.25,127.75,255.86z"/>
	</g>
</g>
<g id="Shape_10_copy_2">
	<g>
		<path class="st2" d="M122.23,243.86c-2.53,0.2-9.56,15.04-11.04,17.86c-1.48,2.83-6.31,5.78-6.31,5.78
			c0.79,1.84-0.1,4.79,1.58,7.36c1.68,2.57,4.37-0.2,6.83-0.53s3.84-4.14,5.26-5.25c1.41-1.11,6.73-19.91,7.36-22.59
			C126.53,243.8,124.75,243.66,122.23,243.86z"/>
	</g>
</g>
<g id="Shape_11">
	<g>
		<path class="st3" d="M105.4,245.96c-0.63-1.45-1.21-1.57-2.1-2.1s-4.21,2.63-5.26,3.15c0,0,0.28,1.73,1.05,2.63
			c0.8,0.94,2.1,1.05,2.1,1.05S106.03,247.42,105.4,245.96z"/>
	</g>
</g>
<g id="Shape_11_copy">
	<g>
		<path class="st3" d="M117.47,242.83c-1.03-1.2-1.63-1.14-2.63-1.38c-1.01-0.24-3.23,3.76-4.08,4.57c0,0,0.78,1.56,1.79,2.2
			c1.05,0.66,2.32,0.38,2.32,0.38S118.5,244.03,117.47,242.83z"/>
	</g>
</g>
<g id="Shape_11_copy_3">
	<g>
		<path class="st3" d="M129.86,256.7c-0.94-0.76-1.37-0.62-2.15-0.65c-0.78-0.03-1.83,3.38-2.33,4.13c0,0,0.81,1.08,1.65,1.4
			c0.87,0.34,1.77-0.07,1.77-0.07S130.8,257.46,129.86,256.7z"/>
	</g>
</g>
<g id="Shape_11_copy_2">
	<g>
		<path class="st3" d="M124.85,244.86c-1.25-0.97-1.82-0.79-2.85-0.83c-1.03-0.04-2.42,4.32-3.09,5.29c0,0,1.07,1.38,2.19,1.8
			c1.15,0.44,2.35-0.09,2.35-0.09S126.1,245.83,124.85,244.86z"/>
	</g>
</g>
<g id="Shape_14">
	<g>
		<path class="st4" d="M285.7,131.94c-12.71-6.63-17.35-7.88-23.65-6.31c0,0-8.05,15.04-14.19,22.59
			c-6.14,7.56-10.15,14.51-13.14,18.39c-2.99,3.88-6.21,6.89-5.26,9.98s3.68,7.36,3.68,7.36s19.55,3.48,23.13,10.51
			c3.58,7.03,3.68,12.61,3.68,12.61s2.2,1.11,4.21-1.05c2.01-2.16,22.44-31.2,24.18-32.58c1.74-1.38,7.88-11.56,7.88-11.56
			S298.42,138.57,285.7,131.94z"/>
	</g>
</g>
<path class="st5" d="M255.29,183.79c0,0,2.5,74.34-32.08,95.81c-34.57,21.46-61.66,30.73-61.66,30.73"/>
<g id="Ellipse_1">
	<g>
		<path class="st4" d="M150.34,308.14c5.09,0,9.23,4.15,9.23,9.24s-4.14,9.24-9.23,9.24s-9.23-4.15-9.23-9.24
			S145.25,308.14,150.34,308.14 M150.34,300.14c-9.52,0-17.23,7.72-17.23,17.24s7.71,17.24,17.23,17.24s17.23-7.72,17.23-17.24
			S159.86,300.14,150.34,300.14L150.34,300.14z"/>
	</g>
</g>
</svg>
