<?xml version="1.0" encoding="utf-8"?>
<!-- Generator: Adobe Illustrator 23.0.2, SVG Export Plug-In . SVG Version: 6.00 Build 0)  -->
<svg version="1.1" id="Layer_1" xmlns="http://www.w3.org/2000/svg" xmlns:xlink="http://www.w3.org/1999/xlink" x="0px" y="0px"
	 viewBox="0 0 678.65 678.65" style="enable-background:new 0 0 678.65 678.65;" xml:space="preserve">
<style type="text/css">
	.st0{fill:#F2F2F2;}
	.st1{fill:#FDD1B0;}
	.st2{fill:#F37031;}
	.st3{opacity:0.1;}
	.st4{fill:#DB5C1D;}
	.st5{opacity:0.1;clip-path:url(#SVGID_2_);}
	.st6{fill:#F15A21;}
	.st7{opacity:0.2;}
	.st8{fill:#FFFFFF;}
	.st9{opacity:0.3;}
	.st10{clip-path:url(#SVGID_4_);}
</style>
<circle class="st0" cx="339.33" cy="339.33" r="339.33"/>
<g>
	<g>
		<g>
			<g>
				<g>
					<path class="st1" d="M195.09,449.22l-0.6-1.44c-0.7-1.68-2.55-3.58-4.12-4.23c-1.57-0.65-3.42-2.55-4.12-4.23l-0.2-0.48
						c-0.69-1.68-0.69-4.42,0-6.1l0.29-0.7c0.7-1.68,2.64-3.62,4.32-4.31l0.61-0.25c1.68-0.7,4.35-0.55,5.94,0.33l1.85,1.02
						c1.59,0.88,3.46,2.97,4.15,4.65l4.38,10.57"/>
				</g>
			</g>
		</g>
	</g>
	<g>
		<g>
			<polygon class="st2" points="372.59,575.6 292.44,608.8 216.66,476.51 296.81,443.31 			"/>
		</g>
		<g class="st3">
			<polygon points="327.81,594.14 292.44,608.8 216.66,476.51 252.03,461.86 			"/>
		</g>
		<g>
			<path class="st4" d="M324.26,446.6c2.89,6.98-0.45,15.06-7.44,17.95l-92.38,38.26c-6.98,2.89-15.06-0.45-17.95-7.43l-15.5-37.43
				c-2.89-6.98,0.45-15.06,7.44-17.95l92.38-38.26c6.98-2.89,15.06,0.45,17.95,7.43L324.26,446.6z"/>
		</g>
		<g>
			<defs>
				<path id="SVGID_1_" d="M324.26,446.6c2.89,6.98-0.45,15.06-7.44,17.95l-92.38,38.26c-6.98,2.89-15.06-0.45-17.95-7.43
					l-15.5-37.43c-2.89-6.98,0.45-15.06,7.44-17.95l92.38-38.26c6.98-2.89,15.06,0.45,17.95,7.43L324.26,446.6z"/>
			</defs>
			<clipPath id="SVGID_2_">
				<use xlink:href="#SVGID_1_"  style="overflow:visible;"/>
			</clipPath>
			<g class="st5">
				<path d="M191.4,481.73c0,0,36.84-15.26,60.9-25.22c46.12-19.1,90.37-14.87,90.37-14.87l-20.4-49.25l-147.18,65.16L191.4,481.73z
					"/>
			</g>
		</g>
		<g>
			<path class="st2" d="M256.39,210.69c-18.95,15.02-52.73,34.89-75.06,44.14l-17.17,7.11c-22.34,9.25-33.05,35.1-23.79,57.44
				l42.06,101.54c9.25,22.34,35.1,33.05,57.44,23.79l17.17-7.11c22.34-9.25,60.27-19.09,84.29-21.87l210.88-7.04
				c24.02-2.77-0.16-84.84-9.41-107.18L471.55,129.5c-9.25-22.34-43.74-76.82-62.68-61.8L256.39,210.69z"/>
		</g>
		<g>
			<path class="st6" d="M257.91,437.42c-64.89-35.49-96.5-111.79-75.71-182.77l-85.08,35.24c-20.79,70.98,10.81,147.28,75.7,182.77
				L257.91,437.42z"/>
		</g>
		<g class="st7">
			<path class="st8" d="M240.94,444.44c-64.89-35.49-96.5-111.79-75.7-182.77l-22.39,9.27c-20.79,70.98,10.81,147.28,75.71,182.77
				L240.94,444.44z"/>
		</g>
		<g>
			<g>
				<path class="st2" d="M459.3,116.89c-21.63-27.56-35.34-33.29-38.69-33.51c-2.21,2.53-7.86,16.27-3.66,51.06
					c4.06,33.63,15.75,74.98,32.91,116.41c17.16,41.44,38.13,78.94,59.05,105.59c21.63,27.56,35.34,33.29,38.69,33.51
					c2.21-2.53,7.86-16.27,3.66-51.06c-4.06-33.63-15.75-74.98-32.91-116.41C501.18,181.04,480.21,143.54,459.3,116.89z"/>
			</g>
			<g>
				<path class="st6" d="M413.14,65.36c-28.81,11.93-20.39,98.29,18.8,192.9c39.19,94.61,94.3,161.62,123.11,149.69
					c28.81-11.93,20.39-98.3-18.8-192.9C497.07,120.45,441.95,53.43,413.14,65.36z M547.59,389.95
					c-3.35-0.23-17.06-5.95-38.69-33.51c-20.91-26.65-41.88-64.15-59.05-105.59c-17.16-41.44-28.85-82.78-32.91-116.41
					c-4.2-34.78,1.45-48.52,3.66-51.06c3.36,0.23,17.07,5.95,38.69,33.51c20.91,26.65,41.88,64.15,59.05,105.59
					c17.16,41.44,28.85,82.78,32.91,116.41C555.45,373.67,549.8,387.41,547.59,389.95z"/>
			</g>
		</g>
		<g class="st9">
			<path d="M459.3,116.89c-21.63-27.56-35.34-33.29-38.69-33.51c-2.21,2.53-7.86,16.27-3.66,51.06
				c4.06,33.63,15.75,74.98,32.91,116.41c17.16,41.44,38.13,78.94,59.05,105.59c21.63,27.56,35.34,33.29,38.69,33.51
				c2.21-2.53,7.86-16.27,3.66-51.06c-4.06-33.63-15.75-74.98-32.91-116.41C501.18,181.04,480.21,143.54,459.3,116.89z"/>
		</g>
		<g>
			<defs>
				<path id="SVGID_3_" d="M459.3,116.89c-21.63-27.56-35.34-33.29-38.69-33.51c-2.21,2.53-7.86,16.27-3.66,51.06
					c4.06,33.63,15.75,74.98,32.91,116.41c17.16,41.44,38.13,78.94,59.05,105.59c21.63,27.56,35.34,33.29,38.69,33.51
					c2.21-2.53,7.86-16.27,3.66-51.06c-4.06-33.63-15.75-74.98-32.91-116.41C501.18,181.04,480.21,143.54,459.3,116.89z"/>
			</defs>
			<clipPath id="SVGID_4_">
				<use xlink:href="#SVGID_3_"  style="overflow:visible;"/>
			</clipPath>
			<g class="st10">
				<g>
					<path class="st4" d="M468.51,178.07l-85.15,29.15l50.33,121.5l80.28-40.91c4.7-1.95-1.67-28.09-14.22-58.39
						C487.2,199.11,473.21,176.12,468.51,178.07z"/>
				</g>
				<g>
					<path class="st2" d="M496.88,231.37c10.06,24.29,15.81,44.98,12.84,46.21c-2.97,1.23-13.53-17.47-23.59-41.76
						c-10.06-24.29-15.81-44.98-12.84-46.21C476.26,188.38,486.82,207.07,496.88,231.37z"/>
				</g>
			</g>
		</g>
	</g>
</g>
</svg>
