<?xml version="1.0" encoding="utf-8"?>
<!-- Generator: Adobe Illustrator 22.0.1, SVG Export Plug-In . SVG Version: 6.00 Build 0)  -->
<svg version="1.1" id="레이어_1" xmlns="http://www.w3.org/2000/svg" xmlns:xlink="http://www.w3.org/1999/xlink" x="0px"
	 y="0px" viewBox="0 0 400 400" style="enable-background:new 0 0 400 400;" xml:space="preserve">
<style type="text/css">
	.st0{fill:#F5C732;}
</style>
<path class="st0" d="M180.1,143.3c0-6.5-6.8-11.8-15.2-11.8h-59.5c-8.4,0-15.2,5.3-15.2,11.8c0,0.4,0,0.9,0.1,1.3
	c0,0.3-0.1,0.6-0.1,0.9v78.4c0,4.4,3.7,8,8.2,8s8.2-3.6,8.2-8v-68.7h0.9l3.5,21.3v27.6v1.1v100.3c0,6.7,4.8,12.1,10.7,12.1
	s10.7-5.4,10.7-12.1v-76.1c0.9,0.1,1.7,0.1,2.6,0.1c0.9,0,1.8-0.1,2.6-0.1v76.1c0,6.7,4.8,12.1,10.7,12.1c5.9,0,10.7-5.4,10.7-12.1
	V205.2v-1.1v-27.6l3.5-21.3h0.9v68.5c0,4.5,3.7,8.2,8.2,8.2c4.6,0,8.2-3.7,8.2-8.2v-80c0,0,0-0.1,0-0.1
	C180.1,143.4,180.1,143.4,180.1,143.3z"/>
<path class="st0" d="M286.2,106.8c0,13.4-11.1,24.2-24.7,24.2s-24.7-10.9-24.7-24.2s11.1-24.2,24.7-24.2S286.2,93.4,286.2,106.8z"/>
<path class="st0" d="M318.9,205.4L295.2,143c-0.7-2-2.1-3.5-3.7-4.6c-3-2.9-7.1-4.7-11.7-4.7h-37.6c-5.8,0-11,3-13.9,7.4
	c-0.5,0.6-0.9,1.3-1.2,2l-24,58.9c-1.8,4.5,0.3,9.5,4.7,11.1c4.4,1.6,9.5-0.7,11.3-5.2l17.9-43.8c0.5,0.2,1.1,0.3,1.7,0.4
	l-17.6,91.8v1.7c0,0,6.2,2,19,3.2v50.4c0,4.4,3.8,8,8.4,8c4.6,0,8.4-3.6,8.4-8v-49.6c3.1,0,6.4,0,9.9-0.1v49.7c0,4.4,3.8,8,8.4,8
	c4.6,0,8.4-3.6,8.4-8V261c7-0.6,14.6-1.5,22.9-2.8l-22.2-93.8c0.2-0.1,0.4-0.1,0.5-0.1l17.8,46.8c1.8,4.7,6.9,7.3,11.4,5.8
	S320.7,210.1,318.9,205.4z"/>
<path class="st0" d="M159.9,104.2c0,13.4-11.1,24.2-24.7,24.2c-13.7,0-24.7-10.9-24.7-24.2c0-13.4,11.1-24.2,24.7-24.2
	C148.8,80,159.9,90.9,159.9,104.2z"/>
</svg>
