<?xml version="1.0" encoding="utf-8"?>
<!-- Generator: Adobe Illustrator 23.0.2, SVG Export Plug-In . SVG Version: 6.00 Build 0)  -->
<svg version="1.1" id="레이어_1" xmlns="http://www.w3.org/2000/svg" xmlns:xlink="http://www.w3.org/1999/xlink" x="0px"
	 y="0px" viewBox="0 0 50 50" style="enable-background:new 0 0 50 50;" xml:space="preserve">
<style type="text/css">
	.st0{fill:#FF0000;}
</style>
<g id="레이어_1_사본">
	<path class="st0" d="M40.5,39.8L40.5,39.8c-1.8,1.8-4.8,1.8-6.6,0l-23-23C9,15,9,12,10.8,10.2l0,0c1.8-1.8,4.8-1.8,6.6,0l23,23
		C42.3,35,42.3,38,40.5,39.8z"/>
</g>
<g>
	<path class="st0" d="M10.8,39.8L10.8,39.8C9,38,9,35,10.8,33.2l23-23c1.8-1.8,4.8-1.8,6.6,0l0,0c1.8,1.8,1.8,4.8,0,6.6l-23,23
		C15.6,41.7,12.7,41.7,10.8,39.8z"/>
</g>
</svg>
