<?xml version="1.0" encoding="utf-8"?>
<!-- Generator: Adobe Illustrator 23.0.2, SVG Export Plug-In . SVG Version: 6.00 Build 0)  -->
<svg version="1.1" id="레이어_1" xmlns="http://www.w3.org/2000/svg" xmlns:xlink="http://www.w3.org/1999/xlink" x="0px"
	 y="0px" viewBox="0 0 400 400" style="enable-background:new 0 0 400 400;" xml:space="preserve">
<style type="text/css">
	.st0{fill:#08102B;}
	.st1{fill:#F8CBC5;}
	.st2{fill:#231716;}
	.st3{fill:#F5C732;}
</style>
<g id="Shape_16">
	<g>
		<path class="st0" d="M228,313c0,0-48.19-10.58-57.67,2.69C160.86,328.95,155,354,155,354h99L228,313z"/>
	</g>
</g>
<g id="Shape_4">
	<g>
		<path class="st1" d="M300,205c-5.96-1.88-9.04,3.88-16,12s-2.2,13.22-7,15c-11.46,4.12-37,19-37,19l-7-33c-6.96-5.88-25-47-25-47
			c-3-0.5-12,23-12,23s21.46,83.38,25,86c5.53,4.09,45.8-21.26,54-27c2.11-1.48,9.72-7.86,16-11c2.76-1.38,8.46-2.27,10-3
			c5.04-2.38,8.96-3.62,12-10C316.04,222.62,305.96,206.88,300,205z"/>
	</g>
</g>
<g id="Shape_8">
	<g>
		<path class="st2" d="M241,62c-8.01-13.27-17-4-17-4l-18,6l-15,84c0,0,13.5,7.5,25,7c11.5-0.5,7.51-21.73,7-28
			c-0.51-6.27,11.01-21.73,19-25C249.99,98.73,249.01,75.27,241,62z"/>
	</g>
</g>
<g id="Shape_7">
	<g>
		<path class="st2" d="M222,80c-6.99-9.73-45-26-48-19c0,0-16.69,6.49-21.7,20.2c-1.61,4.39,0.85,14.37,1.7,18.8
			c3.51,18.27,3.99,34.23-2,40c-5.99,5.77-22.51,0.23-16,8c6.51,7.77,15.49,5.23,25,5c9.51-0.23,25.49-9.77,25-15
			C185.51,132.77,228.99,89.73,222,80z"/>
	</g>
</g>
<g id="Shape_3">
	<g>
		<path class="st1" d="M225,187c-11.46-10.38-19.04-23.62-22-32s4-21,4-21l-26-21c0,0-1.23,24.22-9,35
			c-9.01,12.5-25.26,49.99-26.61,58.75c0,0,4.61,22.75,7.61,43.25c3,20.5,15,71,15,71l63-2l-3-56c0,0,3.96-15.12,11-36
			C246.04,206.12,233.72,194.9,225,187z"/>
	</g>
</g>
<g id="Shape_3_copy">
	<g>
		<path class="st3" d="M225,187c-11.46-10.38-22-32-22-32l-31-7c0,0-25.26,49.99-26.61,58.75c0,0,4.61,22.75,7.61,43.25
			c3,20.5,15,71,15,71l63-2l-3-56c0,0,3.96-15.12,11-36C246.04,206.12,233.72,194.9,225,187z"/>
	</g>
</g>
<g id="Shape_1">
	<g>
		<path class="st1" d="M240.09,106.95c-4.88-0.67-5.55-4.87-1.95-14.23c3.6-9.36-4.06-17.16-4.06-17.16
			c-41.89-27.49-51.86,20.07-51.86,20.07S170,92,166,100c-7.4,14.8,12.55,18.69,12.55,18.69c0.26,7.75,32.93,26.85,43.88,21.31
			c10.95-5.54,14.12-23.16,18.52-26.73S244.96,107.62,240.09,106.95z"/>
	</g>
</g>
<g id="Shape_2">
	<g>
		<path class="st2" d="M227,65c0,0,0.96-1.62-10-10c-10.96-8.38-38.04-1.12-53,11c-14.96,12.12-10.99,22.15-7,26
			c5.37,5.19,18.96,3.88,23,4c1.81,0.05,3,12,3,12s1.48-5.38,6-7c3.85-1.38,10.72,0.97,12,1c5.04,0.12,12.96-7.62,21-17
			C230.04,75.62,227,65,227,65z"/>
	</g>
</g>
<g id="Shape_5">
	<g>
		<path class="st1" d="M213,304c-5.27-5.9-11.03-10.87-20.52-12.19c-26.32-3.66-29.85-12.05-40.34-16.99
			c-11.82-5.57-24.08-18.21-28.04-19.4c0,0,67.9-63.92,59.9-77.42c-8-13.5-14.93-17.81-30.02-5.17
			c-15.09,12.64-62.02,80.71-62.02,80.71s-6.35,21.77,4.25,25.26c10.61,3.48,65.72,20.13,71,25.79S190.67,326,196,326
			C201.33,326,218.27,309.9,213,304z"/>
	</g>
</g>
</svg>
