<?xml version="1.0" encoding="utf-8"?>
<!-- Generator: Adobe Illustrator 22.0.1, SVG Export Plug-In . SVG Version: 6.00 Build 0)  -->
<svg version="1.1" id="레이어_1" xmlns="http://www.w3.org/2000/svg" xmlns:xlink="http://www.w3.org/1999/xlink" x="0px"
	 y="0px" viewBox="0 0 50 50" style="enable-background:new 0 0 50 50;" xml:space="preserve">
<style type="text/css">
	.st0{fill:#FFCD00;}
</style>
<g>
	<path class="st0" d="M23.8,48.4c0.5,0.5,1.1,0.7,1.7,0.7c0.6,0,1.2-0.2,1.7-0.7l12.9-12.9c8.1-8.1,8.1-21.2,0-29.3
		C36.2,2.3,31,0.1,25.5,0.1c-5.5,0-10.7,2.2-14.6,6.1c-8.1,8.1-8.1,21.2,0,29.3L23.8,48.4z M19.8,15.1c1.5-1.5,3.5-2.4,5.7-2.4
		c2.2,0,4.2,0.8,5.7,2.4c1.5,1.5,2.4,3.5,2.4,5.7c0,2.2-0.8,4.2-2.4,5.7c-1.5,1.5-3.5,2.4-5.7,2.4c-2.2,0-4.2-0.8-5.7-2.4
		c-1.5-1.5-2.4-3.5-2.4-5.7C17.5,18.7,18.3,16.6,19.8,15.1z"/>
</g>
</svg>
