<?xml version="1.0" encoding="utf-8"?>
<!-- Generator: Adobe Illustrator 23.0.2, SVG Export Plug-In . SVG Version: 6.00 Build 0)  -->
<svg version="1.1" id="레이어_1" xmlns="http://www.w3.org/2000/svg" xmlns:xlink="http://www.w3.org/1999/xlink" x="0px"
	 y="0px" viewBox="0 0 46.66 46.66" style="enable-background:new 0 0 46.66 46.66;" xml:space="preserve">
<style type="text/css">
	.st0{fill:#E94C2E;}
	.st1{fill:#FFFFFF;}
</style>
<path class="st0" d="M46.66,23.33C46.66,10.47,36.19,0,23.33,0C10.47,0,0,10.47,0,23.33c0,12.86,10.47,23.33,23.33,23.33
	C36.19,46.66,46.66,36.19,46.66,23.33z M23.33,44.66C11.57,44.66,2,35.09,2,23.33S11.57,2,23.33,2c11.76,0,21.33,9.57,21.33,21.33
	S35.09,44.66,23.33,44.66z"/>
<path class="st0" d="M23.33,5.84c-9.66,0-17.49,7.83-17.49,17.49s7.83,17.49,17.49,17.49c9.66,0,17.49-7.83,17.49-17.49
	S32.99,5.84,23.33,5.84z M21.17,13.74c0-1.38,1.12-2.5,2.5-2.5c1.38,0,2.5,1.12,2.5,2.5v0.18c0,1.38-1.12,2.5-2.5,2.5
	c-1.38,0-2.5-1.12-2.5-2.5V13.74z"/>
<path class="st1" d="M24.1,36.44h-0.85c-1.15,0-2.08-0.93-2.08-2.08V21.55c0-1.15,0.93-2.08,2.08-2.08h0.85
	c1.15,0,2.08,0.93,2.08,2.08v12.81C26.17,35.51,25.24,36.44,24.1,36.44z"/>
</svg>
