<?xml version="1.0" encoding="utf-8"?>
<!-- Generator: Adobe Illustrator 23.0.2, SVG Export Plug-In . SVG Version: 6.00 Build 0)  -->
<svg version="1.1" id="레이어_1" xmlns="http://www.w3.org/2000/svg" xmlns:xlink="http://www.w3.org/1999/xlink" x="0px"
	 y="0px" viewBox="0 0 46.66 46.66" style="enable-background:new 0 0 46.66 46.66;" xml:space="preserve">
<style type="text/css">
	.st0{fill:#FFFFFF;}
	.st1{fill:#E94C2E;}
</style>
<circle class="st0" cx="23.39" cy="23.27" r="23.39"/>
<path class="st1" d="M13.19,33.49L13.19,33.49c-1.57-1.57-1.57-4.1,0-5.67L27.8,13.2c1.57-1.57,4.1-1.57,5.67,0l0,0
	c1.57,1.57,1.57,4.1,0,5.67L18.86,33.49C17.29,35.06,14.75,35.06,13.19,33.49z"/>
<path class="st1" d="M33.47,33.49L33.47,33.49c-1.57,1.57-4.1,1.57-5.67,0L13.19,18.87c-1.57-1.57-1.57-4.1,0-5.67l0,0
	c1.57-1.57,4.1-1.57,5.67,0l14.62,14.62C35.04,29.39,35.04,31.93,33.47,33.49z"/>
</svg>
