<?xml version="1.0" encoding="utf-8"?>
<!-- Generator: Adobe Illustrator 23.0.2, SVG Export Plug-In . SVG Version: 6.00 Build 0)  -->
<svg version="1.1" id="레이어_1" xmlns="http://www.w3.org/2000/svg" xmlns:xlink="http://www.w3.org/1999/xlink" x="0px"
	 y="0px" viewBox="0 0 100 200" style="enable-background:new 0 0 100 200;" xml:space="preserve">
<style type="text/css">
	.st0{fill:#333333;}
</style>
<g>
	<path class="st0" d="M83.8,18.4H15.2c-8.5,0-15.5,6.9-15.5,15.4v132.3c0,8.5,6.9,15.4,15.5,15.4h68.6c8.5,0,15.4-6.9,15.4-15.4
		V33.8C99.3,25.3,92.3,18.4,83.8,18.4z M50.9,173.8c-6.1,0.9-11.3-4.3-10.4-10.4c0.6-3.8,3.7-6.9,7.5-7.5
		c6.1-0.9,11.3,4.3,10.4,10.4C57.9,170.1,54.8,173.2,50.9,173.8z M90.7,150.8H8.3V39h82.4L90.7,150.8L90.7,150.8z"/>
</g>
</svg>
