<?xml version="1.0" encoding="utf-8"?>
<!-- Generator: Adobe Illustrator 23.0.2, SVG Export Plug-In . SVG Version: 6.00 Build 0)  -->
<svg version="1.1" id="레이어_1" xmlns="http://www.w3.org/2000/svg" xmlns:xlink="http://www.w3.org/1999/xlink" x="0px"
	 y="0px" viewBox="0 0 80 130" style="enable-background:new 0 0 80 130;" xml:space="preserve">
<style type="text/css">
	.st0{fill:#999999;}
</style>
<path class="st0" d="M73.7,56.3C73.6,56.3,73.6,56.3,73.7,56.3L23.7,6.4c-4.8-4.8-12.6-4.8-17.4,0S1.6,19,6.4,23.8L47.6,65
	L6.3,106.2c-4.8,4.8-4.8,12.6,0,17.4l0,0c4.8,4.8,12.6,4.8,17.4,0l49.9-49.9c0,0,0,0,0,0c2.4-2.4,3.6-5.6,3.6-8.7
	C77.3,61.8,76.1,58.7,73.7,56.3z"/>
</svg>
