<?xml version="1.0" encoding="utf-8"?>
<!-- Generator: Adobe Illustrator 23.0.2, SVG Export Plug-In . SVG Version: 6.00 Build 0)  -->
<svg version="1.1" id="레이어_1" xmlns="http://www.w3.org/2000/svg" xmlns:xlink="http://www.w3.org/1999/xlink" x="0px"
	 y="0px" viewBox="0 0 134.17 128.77" style="enable-background:new 0 0 134.17 128.77;" xml:space="preserve">
<style type="text/css">
	.st0{fill:#AF851E;}
	.st1{clip-path:url(#SVGID_2_);fill:#F4DB6E;}
	.st2{display:none;}
	.st3{display:inline;fill:#09102C;}
	.st4{display:inline;}
	.st5{fill:#09102C;}
	.st6{display:inline;fill:none;stroke:#09102C;stroke-width:6;stroke-linecap:round;stroke-linejoin:round;stroke-miterlimit:10;}
	.st7{fill:none;stroke:#09102C;stroke-width:4;stroke-linecap:round;stroke-linejoin:round;stroke-miterlimit:10;}
	.st8{fill:#E94744;}
</style>
<path class="st0" d="M77.77,6.64l11.5,23.3c1.74,3.52,5.09,5.95,8.97,6.52l25.71,3.74c9.77,1.42,13.68,13.43,6.6,20.32l-18.61,18.14
	c-2.81,2.74-4.09,6.68-3.43,10.55l4.39,25.61c1.67,9.73-8.55,17.16-17.29,12.56l-23-12.09c-3.47-1.82-7.62-1.82-11.09,0l-23,12.09
	c-8.74,4.6-18.96-2.83-17.29-12.56l4.39-25.61c0.66-3.87-0.62-7.81-3.43-10.55L3.61,60.52c-7.07-6.89-3.17-18.9,6.6-20.32
	l25.71-3.74c3.88-0.56,7.24-3,8.97-6.52l11.5-23.3C60.77-2.21,73.4-2.21,77.77,6.64z"/>
<g>
	<defs>
		<path id="SVGID_1_" d="M77.77,6.64l11.5,23.3c1.74,3.52,5.09,5.95,8.97,6.52l25.71,3.74c9.77,1.42,13.68,13.43,6.6,20.32
			l-18.61,18.14c-2.81,2.74-4.09,6.68-3.43,10.55l4.39,25.61c1.67,9.73-8.55,17.16-17.29,12.56l-23-12.09
			c-3.47-1.82-7.62-1.82-11.09,0l-23,12.09c-8.74,4.6-18.96-2.83-17.29-12.56l4.39-25.61c0.66-3.87-0.62-7.81-3.43-10.55L3.61,60.52
			c-7.07-6.89-3.17-18.9,6.6-20.32l25.71-3.74c3.88-0.56,7.24-3,8.97-6.52l11.5-23.3C60.77-2.21,73.4-2.21,77.77,6.64z"/>
	</defs>
	<clipPath id="SVGID_2_">
		<use xlink:href="#SVGID_1_"  style="overflow:visible;"/>
	</clipPath>
	<path class="st1" d="M73.01,5.64l11.5,23.3c1.74,3.52,5.09,5.95,8.97,6.52l25.71,3.74c9.77,1.42,13.68,13.43,6.6,20.32
		l-18.61,18.14c-2.81,2.74-4.09,6.68-3.43,10.55l4.39,25.61c1.67,9.73-8.55,17.16-17.29,12.56l-23-12.09
		c-3.47-1.82-7.62-1.82-11.09,0l-23,12.09c-8.74,4.6-18.96-2.83-17.29-12.56l4.39-25.61c0.66-3.87-0.62-7.81-3.43-10.55L-1.15,59.52
		c-7.07-6.89-3.17-18.9,6.6-20.32l25.71-3.74c3.88-0.56,7.24-3,8.97-6.52l11.5-23.3C56.01-3.21,68.64-3.21,73.01,5.64z"/>
</g>
<g class="st2">
	<ellipse class="st3" cx="51.33" cy="64.39" rx="3.81" ry="5.55"/>
	<ellipse class="st3" cx="79.33" cy="64.39" rx="3.81" ry="5.55"/>
	<g class="st4">
		<g>
			<path class="st5" d="M47.73,46.22c2.25,3.34,4.72,6.52,7.4,9.53c2.15,2.41,5.67-1.14,3.54-3.54c-2.4-2.69-4.6-5.52-6.62-8.52
				C50.26,41.04,45.92,43.54,47.73,46.22L47.73,46.22z"/>
		</g>
	</g>
	<g class="st4">
		<g>
			<path class="st5" d="M74.9,57.36c3.9-1.59,7.4-3.7,10.59-6.46c2.44-2.11-1.11-5.63-3.54-3.54c-2.49,2.16-5.33,3.93-8.38,5.18
				c-1.26,0.51-2.12,1.66-1.75,3.08C72.14,56.8,73.65,57.87,74.9,57.36L74.9,57.36z"/>
		</g>
	</g>
	<path class="st6" d="M55.89,83.31c0,0,8.78-8.55,19.63,0"/>
</g>
<g>
	<ellipse class="st5" cx="51.33" cy="64.39" rx="3.81" ry="5.55"/>
	<ellipse class="st5" cx="79.33" cy="64.39" rx="3.81" ry="5.55"/>
	<g>
		<g>
			<path class="st5" d="M44.78,55.05c2.97-1.78,5.94-3.56,8.91-5.34c2.76-1.65,0.25-5.98-2.52-4.32c-2.97,1.78-5.94,3.56-8.91,5.34
				C39.5,52.38,42.01,56.71,44.78,55.05L44.78,55.05z"/>
		</g>
	</g>
	<g>
		<g>
			<path class="st5" d="M79.44,49.75c1.77,0.85,3.55,1.7,5.32,2.54c1.22,0.58,2.7,0.34,3.42-0.9c0.64-1.09,0.33-2.84-0.9-3.42
				c-1.77-0.85-3.55-1.7-5.32-2.54c-1.22-0.58-2.7-0.34-3.42,0.9C77.9,47.42,78.22,49.17,79.44,49.75L79.44,49.75z"/>
		</g>
	</g>
	<path class="st7" d="M52.44,84.74c0,0,18.79-6.42,26.89,0"/>
</g>
<g class="st2">
	<ellipse class="st3" cx="51.33" cy="64.39" rx="3.81" ry="5.55"/>
	<g class="st4">
		<ellipse class="st5" cx="79.33" cy="64.39" rx="3.81" ry="5.55"/>
	</g>
	<g class="st4">
		<g>
			<path class="st5" d="M57.5,85.81c4.99,0,9.98,0,14.97,0c3.22,0,3.22-5,0-5c-4.99,0-9.98,0-14.97,0
				C54.28,80.81,54.28,85.81,57.5,85.81L57.5,85.81z"/>
		</g>
	</g>
</g>
<g class="st2">
	<ellipse class="st3" cx="51.33" cy="64.39" rx="3.81" ry="5.55"/>
	<g class="st4">
		<ellipse class="st5" cx="79.33" cy="64.39" rx="3.81" ry="5.55"/>
	</g>
	<g class="st4">
		<g>
			<path class="st5" d="M60.92,84.66c5.9,3.01,12.71,1.3,16.69-3.91c1.95-2.56-2.39-5.05-4.32-2.52c-2.26,2.95-6.6,3.78-9.85,2.12
				C60.59,78.88,58.05,83.2,60.92,84.66L60.92,84.66z"/>
		</g>
	</g>
</g>
<g class="st2">
	<ellipse class="st3" cx="51.33" cy="64.39" rx="3.81" ry="5.55"/>
	<g class="st4">
		<ellipse class="st5" cx="79.33" cy="64.39" rx="3.81" ry="5.55"/>
	</g>
	<g class="st4">
		<path class="st8" d="M49.66,80.07c9.85-0.04,30.39,0.5,30.39,0.79c-0.1,4.08,2.4,14.28-16.85,14.28S49.66,80.07,49.66,80.07z"/>
		<g>
			<path class="st5" d="M49.66,81.95c8.34-0.02,16.69,0.15,25.03,0.46c0.87,0.03,3.4,0.6,4.15,0.19c1.46-0.8-1.27-0.67-0.66-1.35
				c-0.13,0.15,0.07,1.15,0.04,1.34c-0.4,2.11,0.17,3.99-1.03,6c-3.82,6.37-19.32,6.6-24.28,1.77c-2.57-2.51-2.61-6.58-1.43-9.78
				c0.83-2.27-2.79-3.25-3.62-1c-3.32,9.05,2.77,16.21,11.79,17.24c6.32,0.72,15.54,0.34,19.93-5.14c2.57-3.2,2.32-6.97,2.34-10.82
				c0-0.61-0.35-1.36-0.93-1.62c-3.05-1.38-8.01-0.65-11.23-0.74c-6.7-0.19-13.4-0.32-20.1-0.31C47.24,78.2,47.24,81.95,49.66,81.95
				z"/>
		</g>
	</g>
</g>
</svg>
