<?xml version="1.0" encoding="utf-8"?>
<!-- Generator: Adobe Illustrator 23.0.2, SVG Export Plug-In . SVG Version: 6.00 Build 0)  -->
<svg version="1.1" xmlns="http://www.w3.org/2000/svg" xmlns:xlink="http://www.w3.org/1999/xlink" x="0px" y="0px"
	 viewBox="0 0 200 200" style="enable-background:new 0 0 200 200;" xml:space="preserve">
<style type="text/css">
	.st0{display:none;}
	.st1{display:inline;}
	
		.st2{display:inline;fill:#FFFFFF;stroke:#000000;stroke-width:5.2061;stroke-linecap:round;stroke-linejoin:round;stroke-miterlimit:10;}
	.st3{fill:#FFFFFF;stroke:#000000;stroke-width:5.2061;stroke-linecap:round;stroke-linejoin:round;stroke-miterlimit:10;}
</style>
<g id="레이어_1_사본" class="st0">
	<g class="st1">
		<g class="st0">
			<path class="st1" d="M117.3,107.8l-2.7-5.6l2.2-0.2l0.8,2c0.2,0.7,0.5,1.3,0.7,2l0.1,0c0.3-0.7,0.5-1.4,0.8-2.1l0.8-2.2l2.1-0.2
				l-2.7,6.2v3.3l-2.1,0.2L117.3,107.8z"/>
			<path class="st1" d="M122,101.4l5.7-0.6v1.7l-3.6,0.4v1.9l3.1-0.3v1.7l-3.1,0.3v2.1l3.8-0.4v1.7l-5.8,0.6V101.4z"/>
			<path class="st1" d="M129,100.7l2-0.2l0,7.4l3.6-0.3v1.7l-5.6,0.5L129,100.7z"/>
			<path class="st1" d="M135.5,100.1l2.1-0.2l0,7.4l3.6-0.3v1.7l-5.6,0.5L135.5,100.1z"/>
			<path class="st1" d="M141.1,104.1c0-3,1.7-4.9,4.1-5.1c2.5-0.2,4.1,1.3,4.1,4.3c0,3-1.7,5-4.1,5.2
				C142.8,108.7,141.1,107.1,141.1,104.1z M147.2,103.5c0-1.8-0.8-2.8-2-2.7c-1.2,0.1-2,1.3-2,3.1s0.8,2.9,2,2.8
				C146.4,106.6,147.2,105.3,147.2,103.5z"/>
			<path class="st1" d="M117.2,114.3l4.3-0.4c2.6-0.3,4.6,0.3,4.6,2.7c0,1.1-0.6,2.4-1.7,2.9v0.1c1.3,0.2,2.3,1.1,2.3,2.8
				c0,2.6-2.2,4-4.9,4.2l-4.7,0.5L117.2,114.3z M121.3,119c1.4-0.1,2-0.8,2-1.7c0-1-0.7-1.3-2-1.2l-1.3,0.1v2.9L121.3,119z
				 M121.6,124.4c1.6-0.2,2.3-0.8,2.3-1.9c0-1.1-0.8-1.5-2.3-1.3l-1.6,0.2v3.3L121.6,124.4z"/>
			<path class="st1" d="M127.3,119.6c0-4.2,2.3-6.8,5.7-7.1c3.4-0.3,5.7,1.8,5.7,6c0,4.2-2.3,6.9-5.7,7.2
				C129.6,126.1,127.3,123.8,127.3,119.6z M135.8,118.8c0-2.5-1.1-3.9-2.8-3.8c-1.7,0.2-2.8,1.8-2.8,4.3s1.1,4.1,2.8,3.9
				C134.7,123.1,135.8,121.4,135.8,118.8z"/>
			<path class="st1" d="M141.8,118.1l-3.3-5.8l3.2-0.3l1.1,2.3c0.3,0.6,0.5,1.2,0.9,1.9l0.1,0c0.3-0.8,0.5-1.5,0.8-2.1l1-2.5l3-0.3
				l-3.3,6.6l3.5,6.1l-3.2,0.3l-1.2-2.5c-0.3-0.6-0.6-1.3-0.9-2l-0.1,0c-0.3,0.8-0.6,1.5-0.9,2.2l-1.2,2.7l-3,0.3L141.8,118.1z"/>
		</g>
	</g>
	<path class="st2" d="M166.1,178.3H35c-6.6,0-12-5.4-12-12V35.3c0-6.6,5.4-12,12-12h131.1c6.6,0,12,5.4,12,12v131.1
		C178.1,172.9,172.7,178.3,166.1,178.3z"/>
	<g>
		<g class="st1">
			<rect x="59.1" y="108.8" transform="matrix(0.7071 0.7071 -0.7071 0.7071 111.3916 -8.2843)" width="13.2" height="43"/>
			<g>
				<rect x="59.1" y="108.8" transform="matrix(-0.7071 0.7071 -0.7071 -0.7071 204.2996 176.0152)" width="13.2" height="43"/>
			</g>
		</g>
		<g class="st1">
			<rect x="128.8" y="47.9" transform="matrix(-1.836970e-16 1 -1 -1.836970e-16 204.7866 -66.0061)" width="13.2" height="43"/>
		</g>
		<g class="st1">
			<rect x="59.1" y="47.9" width="13.2" height="43"/>
			<g>
				<rect x="59.1" y="47.9" transform="matrix(-1.836970e-16 1 -1 -1.836970e-16 135.0861 3.6944)" width="13.2" height="43"/>
			</g>
		</g>
		<g class="st1">
			<g>
				<g>
					<rect x="128.8" y="112.3" transform="matrix(0.7071 0.7071 -0.7071 0.7071 134.2873 -56.5424)" width="13.2" height="43"/>
				</g>
			</g>
			<circle cx="124.2" cy="122.6" r="5.9"/>
			<circle cx="146.8" cy="145.2" r="5.9"/>
		</g>
	</g>
	<rect x="48.3" y="63.9" class="st1" width="103.4" height="15"/>
	<rect x="48.3" y="100" class="st1" width="103.4" height="15"/>
</g>
<g id="레이어_1">
	<g>
		<g class="st0">
			<path class="st1" d="M117.3,107.8l-2.7-5.6l2.2-0.2l0.8,2c0.2,0.7,0.5,1.3,0.7,2l0.1,0c0.3-0.7,0.5-1.4,0.8-2.1l0.8-2.2l2.1-0.2
				l-2.7,6.2v3.3l-2.1,0.2L117.3,107.8z"/>
			<path class="st1" d="M122,101.4l5.7-0.6v1.7l-3.6,0.4v1.9l3.1-0.3v1.7l-3.1,0.3v2.1l3.8-0.4v1.7l-5.8,0.6V101.4z"/>
			<path class="st1" d="M129,100.7l2-0.2l0,7.4l3.6-0.3v1.7l-5.6,0.5L129,100.7z"/>
			<path class="st1" d="M135.5,100.1l2.1-0.2l0,7.4l3.6-0.3v1.7l-5.6,0.5L135.5,100.1z"/>
			<path class="st1" d="M141.1,104.1c0-3,1.7-4.9,4.1-5.1c2.5-0.2,4.1,1.3,4.1,4.3c0,3-1.7,5-4.1,5.2
				C142.8,108.7,141.1,107.1,141.1,104.1z M147.2,103.5c0-1.8-0.8-2.8-2-2.7c-1.2,0.1-2,1.3-2,3.1s0.8,2.9,2,2.8
				C146.4,106.6,147.2,105.3,147.2,103.5z"/>
			<path class="st1" d="M117.2,114.3l4.3-0.4c2.6-0.3,4.6,0.3,4.6,2.7c0,1.1-0.6,2.4-1.7,2.9v0.1c1.3,0.2,2.3,1.1,2.3,2.8
				c0,2.6-2.2,4-4.9,4.2l-4.7,0.5L117.2,114.3z M121.3,119c1.4-0.1,2-0.8,2-1.7c0-1-0.7-1.3-2-1.2l-1.3,0.1v2.9L121.3,119z
				 M121.6,124.4c1.6-0.2,2.3-0.8,2.3-1.9c0-1.1-0.8-1.5-2.3-1.3l-1.6,0.2v3.3L121.6,124.4z"/>
			<path class="st1" d="M127.3,119.6c0-4.2,2.3-6.8,5.7-7.1c3.4-0.3,5.7,1.8,5.7,6c0,4.2-2.3,6.9-5.7,7.2
				C129.6,126.1,127.3,123.8,127.3,119.6z M135.8,118.8c0-2.5-1.1-3.9-2.8-3.8c-1.7,0.2-2.8,1.8-2.8,4.3s1.1,4.1,2.8,3.9
				C134.7,123.1,135.8,121.4,135.8,118.8z"/>
			<path class="st1" d="M141.8,118.1l-3.3-5.8l3.2-0.3l1.1,2.3c0.3,0.6,0.5,1.2,0.9,1.9l0.1,0c0.3-0.8,0.5-1.5,0.8-2.1l1-2.5l3-0.3
				l-3.3,6.6l3.5,6.1l-3.2,0.3l-1.2-2.5c-0.3-0.6-0.6-1.3-0.9-2l-0.1,0c-0.3,0.8-0.6,1.5-0.9,2.2l-1.2,2.7l-3,0.3L141.8,118.1z"/>
		</g>
	</g>
	<path class="st3" d="M166.1,178.3H35c-6.6,0-12-5.4-12-12V35.3c0-6.6,5.4-12,12-12h131.1c6.6,0,12,5.4,12,12v131.1
		C178.1,172.9,172.7,178.3,166.1,178.3z"/>
	<g>
		<g>
			<rect x="59.1" y="108.8" transform="matrix(0.7071 0.7071 -0.7071 0.7071 111.3916 -8.2843)" width="13.2" height="43"/>
			<g>
				<rect x="59.1" y="108.8" transform="matrix(-0.7071 0.7071 -0.7071 -0.7071 204.2996 176.0152)" width="13.2" height="43"/>
			</g>
		</g>
		<g>
			<rect x="128.8" y="47.9" transform="matrix(-1.836970e-16 1 -1 -1.836970e-16 204.7866 -66.0061)" width="13.2" height="43"/>
		</g>
		<g>
			<rect x="59.1" y="47.9" width="13.2" height="43"/>
			<g>
				<rect x="59.1" y="47.9" transform="matrix(-1.836970e-16 1 -1 -1.836970e-16 135.0861 3.6944)" width="13.2" height="43"/>
			</g>
		</g>
		<g>
			<g>
				<g>
					<rect x="128.8" y="112.3" transform="matrix(0.7071 0.7071 -0.7071 0.7071 134.2873 -56.5424)" width="13.2" height="43"/>
				</g>
			</g>
			<circle cx="124.2" cy="122.6" r="5.9"/>
			<circle cx="146.8" cy="145.2" r="5.9"/>
		</g>
	</g>
</g>
<g id="레이어_3" class="st0">
	<path class="st2" d="M106.3,46.3l13.4,27.2c1.1,2.3,3.4,3.9,5.9,4.3l30,4.4c6.5,0.9,9.1,8.9,4.4,13.5l-21.7,21.2
		c-1.9,1.8-2.7,4.4-2.3,7l5.1,29.9c1.1,6.4-5.7,11.4-11.5,8.3L102.9,148c-2.3-1.2-5-1.2-7.3,0l-26.9,14.1c-5.8,3-12.6-1.9-11.5-8.3
		l5.1-29.9c0.4-2.6-0.4-5.2-2.3-7L38.3,95.7c-4.7-4.6-2.1-12.5,4.4-13.5l30-4.4c2.6-0.4,4.8-2,5.9-4.3l13.4-27.2
		C95,40.5,103.4,40.5,106.3,46.3z"/>
</g>
</svg>
